<?xml version="1.0" encoding="UTF-8" standalone="no"?>
<!-- Created with Inkscape (http://www.inkscape.org/) -->

<svg
   xmlns:dc="http://purl.org/dc/elements/1.1/"
   xmlns:cc="http://creativecommons.org/ns#"
   xmlns:rdf="http://www.w3.org/1999/02/22-rdf-syntax-ns#"
   xmlns:svg="http://www.w3.org/2000/svg"
   xmlns="http://www.w3.org/2000/svg"
   xmlns:sodipodi="http://sodipodi.sourceforge.net/DTD/sodipodi-0.dtd"
   xmlns:inkscape="http://www.inkscape.org/namespaces/inkscape"
   width="311.83017"
   height="75"
   id="svg3169"
   version="1.1"
   inkscape:version="0.48.5 r10040"
   sodipodi:docname="New document 3">
  <defs
     id="defs3171" />
  <sodipodi:namedview
     id="base"
     pagecolor="#ffffff"
     bordercolor="#666666"
     borderopacity="1.0"
     inkscape:pageopacity="0.0"
     inkscape:pageshadow="2"
     inkscape:zoom="3.959798"
     inkscape:cx="124.42716"
     inkscape:cy="25.327376"
     inkscape:document-units="px"
     inkscape:current-layer="layer1"
     showgrid="false"
     fit-margin-top="0"
     fit-margin-left="0"
     fit-margin-right="0"
     fit-margin-bottom="0"
     inkscape:window-width="1920"
     inkscape:window-height="1017"
     inkscape:window-x="-8"
     inkscape:window-y="32"
     inkscape:window-maximized="1" />
  <metadata
     id="metadata3174">
    <rdf:RDF>
      <cc:Work
         rdf:about="">
        <dc:format>image/svg+xml</dc:format>
        <dc:type
           rdf:resource="http://purl.org/dc/dcmitype/StillImage" />
        <dc:title></dc:title>
      </cc:Work>
    </rdf:RDF>
  </metadata>
  <g
     inkscape:label="Layer 1"
     inkscape:groupmode="layer"
     id="layer1"
     transform="translate(-198.07335,-249.21939)">
    <g
       id="g3105"
       transform="matrix(1.0115587,0,0,1.0115587,140.36797,136.17973)">
      <g
         id="g3107">
        <path
           id="path3109"
           d="m 160.154,138.21 c 2.257,-0.378 5.215,-0.701 8.978,-0.701 4.622,0 8.01,1.076 10.159,3.01 1.989,1.722 3.173,4.356 3.173,7.582 0,3.278 -0.968,5.86 -2.795,7.742 -2.475,2.632 -6.506,3.976 -11.075,3.976 -1.399,0 -2.687,-0.052 -3.763,-0.323 v 14.515 h -4.677 V 138.21 z m 4.676,17.47 c 1.021,0.27 2.312,0.375 3.871,0.375 5.645,0 9.086,-2.74 9.086,-7.739 0,-4.784 -3.388,-7.096 -8.548,-7.096 -2.044,0 -3.603,0.16 -4.409,0.375 v 14.085 z"
           style="fill:#4d8548"
           inkscape:connector-curvature="0" />
        <path
           id="path3111"
           d="m 190.52,147.993 5.697,15.374 c 0.593,1.722 1.236,3.763 1.666,5.322 h 0.108 c 0.486,-1.559 1.021,-3.548 1.666,-5.43 l 5.162,-15.266 h 4.999 l -7.096,18.546 c -3.388,8.923 -5.7,13.494 -8.925,16.289 -2.309,2.042 -4.622,2.847 -5.805,3.063 l -1.184,-3.979 c 1.184,-0.375 2.742,-1.128 4.141,-2.309 1.289,-1.023 2.903,-2.85 3.979,-5.27 0.215,-0.483 0.375,-0.861 0.375,-1.128 0,-0.267 -0.108,-0.646 -0.323,-1.236 l -9.624,-23.976 h 5.164 z"
           style="fill:#4d8548"
           inkscape:connector-curvature="0" />
        <path
           id="path3113"
           d="m 240.349,172.991 c -1.506,0.753 -4.892,1.559 -9.301,1.559 -12.526,0 -18.977,-7.794 -18.977,-18.116 0,-12.366 8.815,-19.247 19.782,-19.247 4.246,0 7.474,0.861 8.925,1.614 l -1.666,6.506 c -1.666,-0.701 -3.979,-1.346 -6.881,-1.346 -6.506,0 -11.56,3.926 -11.56,11.991 0,7.256 4.301,11.825 11.613,11.825 2.472,0 5.215,-0.538 6.829,-1.184 l 1.236,6.398 z"
           style="fill:#4d8548"
           inkscape:connector-curvature="0" />
        <path
           id="path3115"
           d="m 245.288,135.843 h 8.17 v 14.998 h 0.108 c 0.861,-1.128 1.937,-1.987 3.225,-2.687 1.184,-0.646 2.742,-1.021 4.246,-1.021 5.215,0 9.193,3.603 9.193,11.505 v 15.374 h -8.17 v -14.46 c 0,-3.441 -1.184,-5.805 -4.249,-5.805 -2.149,0 -3.493,1.396 -4.084,2.847 -0.215,0.538 -0.27,1.236 -0.27,1.829 v 15.589 h -8.17 v -38.169 z"
           style="fill:#4d8548"
           inkscape:connector-curvature="0" />
        <path
           id="path3117"
           d="m 291.726,174.011 -0.483,-2.632 h -0.163 c -1.719,2.094 -4.406,3.225 -7.524,3.225 -5.322,0 -8.495,-3.871 -8.495,-8.065 0,-6.829 6.128,-10.106 15.429,-10.054 v -0.375 c 0,-1.399 -0.753,-3.388 -4.784,-3.388 -2.687,0 -5.537,0.916 -7.256,1.989 l -1.506,-5.267 c 1.827,-1.021 5.43,-2.312 10.214,-2.312 8.763,0 11.558,5.162 11.558,11.342 v 9.141 c 0,2.525 0.108,4.944 0.378,6.396 h -7.368 z m -0.968,-12.418 c -4.299,-0.052 -7.632,0.968 -7.632,4.141 0,2.097 1.396,3.118 3.225,3.118 2.042,0 3.708,-1.344 4.246,-3.01 0.108,-0.43 0.16,-0.916 0.16,-1.399 v -2.85 z"
           style="fill:#4d8548"
           inkscape:connector-curvature="0" />
        <path
           id="path3119"
           d="m 305.163,156.378 c 0,-3.868 -0.108,-6.396 -0.215,-8.655 h 7.041 l 0.268,4.839 h 0.215 c 1.346,-3.816 4.572,-5.43 7.096,-5.43 0.753,0 1.131,0 1.722,0.108 v 7.687 c -0.59,-0.108 -1.291,-0.215 -2.204,-0.215 -3.01,0 -5.055,1.614 -5.59,4.141 -0.108,0.538 -0.163,1.181 -0.163,1.827 v 13.332 h -8.17 v -17.634 z"
           style="fill:#4d8548"
           inkscape:connector-curvature="0" />
        <path
           id="path3121"
           d="m 325.586,156.111 c 0,-3.28 -0.108,-6.075 -0.215,-8.387 h 6.881 l 0.375,3.548 h 0.16 c 1.131,-1.666 3.441,-4.139 7.957,-4.139 3.388,0 6.075,1.722 7.204,4.461 h 0.108 c 0.968,-1.344 2.149,-2.42 3.388,-3.17 1.451,-0.861 3.063,-1.291 4.999,-1.291 5.052,0 8.87,3.548 8.87,11.398 v 15.481 h -7.957 v -14.3 c 0,-3.816 -1.236,-6.02 -3.871,-6.02 -1.882,0 -3.225,1.291 -3.763,2.85 -0.215,0.59 -0.323,1.451 -0.323,2.097 v 15.374 h -7.957 v -14.728 c 0,-3.333 -1.181,-5.593 -3.761,-5.593 -2.097,0 -3.336,1.614 -3.818,2.958 -0.268,0.646 -0.323,1.396 -0.323,2.042 v 15.321 h -7.954 v -17.902 z"
           style="fill:#4d8548"
           inkscape:connector-curvature="0" />
      </g>
      <g
         id="g3123">
        <path
           id="path3125"
           d="m 113.223,133.197 h -0.313 c -6.791,0 -12.348,4.568 -13.919,10.703 h -0.075 c -1.072,5.663 -6.04,9.945 -12.015,9.945 -6.766,0 -12.25,-5.484 -12.25,-12.246 0,-0.455 0.033,-0.905 0.095,-1.348 0.011,-0.091 0.02,-0.182 0.039,-0.271 0.025,-0.173 0.061,-0.347 0.098,-0.517 2.426,-11.598 10.091,-21.277 20.378,-26.509 -2.655,-0.774 -5.453,-1.206 -8.36,-1.206 -15.617,0 -28.416,11.997 -29.726,27.274 -0.037,0.109 -0.093,0.212 -0.129,0.324 0,0 0,42.954 0,43.572 0,0 17.063,0 17.655,0 0,-0.116 0,-6.095 0,-14.09 3.73,1.677 7.849,2.625 12.2,2.625 16.488,0 29.857,-13.363 29.857,-29.854 0,-2.921 -0.441,-5.736 -1.223,-8.403 h -2.312 z"
           style="fill:#fa930d"
           inkscape:connector-curvature="0" />
        <path
           id="path3127"
           d="m 95.973,143.339 0.056,-0.091 c 1.859,-7.489 8.611,-13.048 16.675,-13.048 0.179,0 0.346,-0.009 0.524,0 0.11,0 0.245,0 0.397,0 v 0.003 c 0,0 7.282,-0.008 7.513,-0.012 1.341,-0.039 2.608,-0.366 3.748,-0.921 -0.291,-0.034 -0.582,-0.078 -0.877,-0.137 -4.463,-0.885 -7.86,-4.131 -9.15,-8.167 1.718,2.242 4.228,3.91 7.226,4.512 2.539,0.507 5.04,0.151 7.234,-0.825 0.489,-1.123 0.763,-2.361 0.763,-3.662 0,-5.083 -4.133,-9.218 -9.183,-9.22 -0.008,0.001 -5.013,-0.013 -6.742,-0.018 v -0.003 c -0.747,0 -1.257,-0.001 -1.292,-0.002 v 0.004 c -0.054,0 -0.107,0 -0.162,0 -17.074,0 -31.334,12.017 -34.817,28.05 -0.134,0.643 -0.235,1.25 -0.235,1.798 0,5.099 4.152,9.25 9.248,9.25 4.433,0 8.242,-3.158 9.074,-7.511 z m 22.064,-26.248 c 0.309,-1.546 1.815,-2.557 3.37,-2.249 1.543,0.313 2.55,1.812 2.241,3.369 -0.308,1.556 -1.809,2.556 -3.362,2.244 -1.549,-0.308 -2.558,-1.815 -2.249,-3.364 z m 12.084,56.744 c 0,5.094 -4.132,9.226 -9.226,9.226 -0.019,0 -0.036,-0.005 -0.05,-0.005 -0.589,0 -7.846,0 -7.98,0 -0.054,0 -0.107,0 -0.162,0 -8.927,0 -17.069,-3.306 -23.321,-8.732 8.248,-0.616 15.647,-4.277 21.081,-9.879 0.734,0.093 1.48,0.159 2.239,0.159 0.179,0 8.069,0.009 8.192,0 5.095,0 9.227,4.135 9.227,9.231 z"
           style="fill:#4d8548"
           inkscape:connector-curvature="0" />
      </g>
    </g>
  </g>
</svg>
